<svg width="48" height="40" viewBox="0 0 48 40" fill="none" xmlns="http://www.w3.org/2000/svg">
<g clip-path="url(#clip0_3_16)">
<path d="M0 1.875C0 0.835938 0.891667 0 2 0H5.79167C7.625 0 9.25 1 10.0083 2.5H44.2583C46.45 2.5 48.05 4.45312 47.475 6.4375L44.0583 18.3359C43.35 20.7891 40.975 22.5 38.2667 22.5H14.225L14.675 24.7266C14.8583 25.6094 15.6833 26.25 16.6417 26.25H40.6667C41.775 26.25 42.6667 27.0859 42.6667 28.125C42.6667 29.1641 41.775 30 40.6667 30H16.6417C13.7583 30 11.2833 28.0781 10.75 25.4297L6.45 4.25781C6.39167 3.96094 6.11667 3.75 5.79167 3.75H2C0.891667 3.75 0 2.91406 0 1.875ZM10.6667 36.25C10.6667 35.7575 10.7701 35.2699 10.9711 34.8149C11.1722 34.36 11.4668 33.9466 11.8382 33.5984C12.2097 33.2501 12.6506 32.9739 13.1359 32.7854C13.6212 32.597 14.1414 32.5 14.6667 32.5C15.192 32.5 15.7121 32.597 16.1974 32.7854C16.6827 32.9739 17.1237 33.2501 17.4951 33.5984C17.8665 33.9466 18.1612 34.36 18.3622 34.8149C18.5632 35.2699 18.6667 35.7575 18.6667 36.25C18.6667 36.7425 18.5632 37.2301 18.3622 37.6851C18.1612 38.14 17.8665 38.5534 17.4951 38.9016C17.1237 39.2499 16.6827 39.5261 16.1974 39.7146C15.7121 39.903 15.192 40 14.6667 40C14.1414 40 13.6212 39.903 13.1359 39.7146C12.6506 39.5261 12.2097 39.2499 11.8382 38.9016C11.4668 38.5534 11.1722 38.14 10.9711 37.6851C10.7701 37.2301 10.6667 36.7425 10.6667 36.25ZM38.6667 32.5C39.7275 32.5 40.7449 32.8951 41.4951 33.5984C42.2452 34.3016 42.6667 35.2554 42.6667 36.25C42.6667 37.2446 42.2452 38.1984 41.4951 38.9016C40.7449 39.6049 39.7275 40 38.6667 40C37.6058 40 36.5884 39.6049 35.8382 38.9016C35.0881 38.1984 34.6667 37.2446 34.6667 36.25C34.6667 35.2554 35.0881 34.3016 35.8382 33.5984C36.5884 32.8951 37.6058 32.5 38.6667 32.5Z" fill="#FEF9F9"/>
</g>
<defs>
<clipPath id="clip0_3_16">
<rect width="48" height="40" fill="white"/>
</clipPath>
</defs>
</svg>
